<?xml version="1.0" encoding="UTF-8" standalone="no"?>
<!-- Created with Inkscape (http://www.inkscape.org/) -->

<svg
   version="1.1"
   id="svg2"
   width="793.33331"
   height="1122.6667"
   viewBox="0 0 793.33331 1122.6667"
   sodipodi:docname="tmp.pdf"
   xmlns:inkscape="http://www.inkscape.org/namespaces/inkscape"
   xmlns:sodipodi="http://sodipodi.sourceforge.net/DTD/sodipodi-0.dtd"
   xmlns="http://www.w3.org/2000/svg"
   xmlns:svg="http://www.w3.org/2000/svg">
  <defs
     id="defs6">
    <clipPath
       clipPathUnits="userSpaceOnUse"
       id="clipPath18">
      <path
         d="M 0,0 H 2324.41 V 1589.66 H 0 Z"
         id="path16" />
    </clipPath>
  </defs>
  <sodipodi:namedview
     id="namedview4"
     pagecolor="#ffffff"
     bordercolor="#000000"
     borderopacity="0.25"
     inkscape:showpageshadow="2"
     inkscape:pageopacity="0.0"
     inkscape:pagecheckerboard="0"
     inkscape:deskcolor="#d1d1d1" />
  <g
     id="g8"
     inkscape:groupmode="layer"
     inkscape:label="tmp"
     transform="matrix(1.3333333,0,0,-1.3333333,0,1122.6667)">
    <g
       id="g10"
       transform="scale(0.1)">
      <g
         id="g12">
        <g
           id="g14"
           clip-path="url(#clipPath18)">
          <path
             d="M 283.465,1022.73 H 2040.95 c 156.55,0 283.46,126.91 283.46,283.47 0,156.55 -126.91,283.46 -283.46,283.46 H 283.465 C 126.914,1589.66 0,1462.75 0,1306.2 0,1149.64 126.914,1022.73 283.465,1022.73"
             style="fill:#221f21;fill-opacity:1;fill-rule:nonzero;stroke:none"
             id="path20" />
          <path
             d="m 1245.53,1266.27 -21.18,12.23 c 2.96,6.66 4.76,13.36 5.52,20.61 h 24.46 v 14.17 h -24.46 c -0.76,7.25 -2.56,13.95 -5.52,20.61 l 21.18,12.23 -7.08,12.27 -21.19,-12.23 c -4.28,5.9 -9.19,10.81 -15.09,15.09 l 12.24,21.18 -12.28,7.09 -12.23,-21.18 c -6.66,2.96 -13.36,4.76 -20.61,5.52 v 24.46 h -14.17 v -24.46 c -7.25,-0.76 -13.95,-2.56 -20.61,-5.52 l -12.23,21.18 -12.27,-7.09 12.23,-21.18 c -5.9,-4.28 -10.81,-9.19 -15.09,-15.09 l -21.18,12.23 -7.09,-12.27 21.19,-12.23 c -2.97,-6.66 -4.77,-13.36 -5.53,-20.61 h -24.46 v -14.17 h 24.46 c 0.76,-7.25 2.56,-13.95 5.53,-20.61 l -21.19,-12.23 7.09,-12.27 21.18,12.23 c 4.28,-5.9 9.19,-10.81 15.09,-15.09 l -12.23,-21.18 12.27,-7.09 12.23,21.18 c 6.66,-2.96 13.36,-4.76 20.61,-5.51 v -24.47 h 14.17 v 24.47 c 7.25,0.75 13.95,2.55 20.61,5.51 l 12.23,-21.18 12.28,7.09 -12.24,21.18 c 5.9,4.28 10.81,9.19 15.09,15.09 l 21.19,-12.23 7.08,12.27"
             style="fill:#ffffff;fill-opacity:1;fill-rule:nonzero;stroke:none"
             id="path22" />
          <path
             d="m 375.594,1306.2 c 0,50.87 -41.25,92.12 -92.129,92.12 -50.879,0 -92.125,-41.25 -92.125,-92.12 0,-50.88 41.246,-92.13 92.125,-92.13 50.879,0 92.129,41.25 92.129,92.13"
             style="fill:#ffffff;fill-opacity:1;fill-rule:nonzero;stroke:none"
             id="path24" />
          <path
             d="m 1213.23,1306.2 c 0,-28.18 -22.85,-51.03 -51.02,-51.03 -28.18,0 -51.03,22.85 -51.03,51.03 0,28.18 22.85,51.02 51.03,51.02 28.17,0 51.02,-22.84 51.02,-51.02"
             style="fill:#221f21;fill-opacity:1;fill-rule:nonzero;stroke:none"
             id="path26" />
          <path
             d="m 358.586,1306.2 c 0,-41.49 -33.633,-75.12 -75.121,-75.12 -41.485,0 -75.117,33.63 -75.117,75.12 0,41.48 33.632,75.11 75.117,75.11 41.488,0 75.121,-33.63 75.121,-75.11"
             style="fill:#221f21;fill-opacity:1;fill-rule:nonzero;stroke:none"
             id="path28" />
          <path
             d="m 2133.07,1306.2 c 0,50.87 -41.24,92.12 -92.12,92.12 -50.88,0 -92.13,-41.25 -92.13,-92.12 0,-50.88 41.25,-92.13 92.13,-92.13 50.88,0 92.12,41.25 92.12,92.13"
             style="fill:#ffffff;fill-opacity:1;fill-rule:nonzero;stroke:none"
             id="path30" />
          <path
             d="m 2116.06,1306.2 c 0,-41.49 -33.63,-75.12 -75.11,-75.12 -41.49,0 -75.12,33.63 -75.12,75.12 0,41.48 33.63,75.11 75.12,75.11 41.48,0 75.11,-33.63 75.11,-75.11"
             style="fill:#221f21;fill-opacity:1;fill-rule:nonzero;stroke:none"
             id="path32" />
          <path
             d="m 341.574,1306.2 c 0,32.09 -26.015,58.1 -58.109,58.1 -32.094,0 -58.11,-26.01 -58.11,-58.1 h 116.219"
             style="fill:#ffffff;fill-opacity:1;fill-rule:nonzero;stroke:none"
             id="path34" />
          <path
             d="m 1982.84,1306.2 c 0,-32.1 26.01,-58.11 58.11,-58.11 32.09,0 58.11,26.01 58.11,58.11 h -116.22"
             style="fill:#ffffff;fill-opacity:1;fill-rule:nonzero;stroke:none"
             id="path36" />
          <path
             d="m 1162.21,1272.18 c 18.78,0 34.01,15.23 34.01,34.02 0,18.78 -15.23,34.01 -34.01,34.01 v -68.03"
             style="fill:#ffffff;fill-opacity:1;fill-rule:nonzero;stroke:none"
             id="path38" />
          <path
             d="M 283.465,0 H 2040.95 c 156.55,0 283.46,126.91 283.46,283.461 0,156.551 -126.91,283.469 -283.46,283.469 H 283.465 C 126.91,566.93 0,440.012 0,283.461 0,126.91 126.91,0 283.465,0"
             style="fill:#f1f0f0;fill-opacity:1;fill-rule:nonzero;stroke:none"
             id="path40" />
          <path
             d="m 1245.53,243.539 -21.18,12.231 c 2.96,6.652 4.76,13.359 5.52,20.601 h 24.46 v 14.18 h -24.46 c -0.76,7.238 -2.56,13.949 -5.52,20.597 l 21.18,12.243 -7.08,12.269 -21.19,-12.23 c -4.28,5.902 -9.19,10.8 -15.09,15.082 l 12.24,21.187 -12.28,7.09 -12.23,-21.187 c -6.66,2.968 -13.36,4.757 -20.61,5.519 v 24.469 h -14.17 v -24.469 c -7.25,-0.762 -13.95,-2.551 -20.61,-5.519 l -12.23,21.187 -12.27,-7.09 12.23,-21.187 c -5.9,-4.282 -10.81,-9.18 -15.09,-15.082 l -21.18,12.23 -7.09,-12.269 21.19,-12.243 c -2.97,-6.648 -4.77,-13.359 -5.53,-20.597 h -24.46 v -14.18 h 24.46 c 0.76,-7.242 2.56,-13.949 5.53,-20.601 l -21.19,-12.231 7.09,-12.277 21.18,12.226 c 4.28,-5.886 9.19,-10.797 15.09,-15.078 l -12.23,-21.191 12.27,-7.09 12.23,21.191 c 6.66,-2.961 13.36,-4.761 20.61,-5.519 V 191.34 h 14.17 v 24.461 c 7.25,0.758 13.95,2.558 20.61,5.519 l 12.23,-21.191 12.28,7.09 -12.24,21.191 c 5.9,4.281 10.81,9.192 15.09,15.078 l 21.19,-12.226 7.08,12.277"
             style="fill:#ffffff;fill-opacity:1;fill-rule:nonzero;stroke:none"
             id="path42" />
          <path
             d="m 375.59,283.461 c 0,50.879 -41.246,92.129 -92.125,92.129 -50.879,0 -92.125,-41.25 -92.125,-92.129 0,-50.879 41.246,-92.121 92.125,-92.121 50.879,0 92.125,41.242 92.125,92.121"
             style="fill:#ffffff;fill-opacity:1;fill-rule:nonzero;stroke:none"
             id="path44" />
          <path
             d="m 1213.23,283.461 c 0,-28.18 -22.85,-51.02 -51.02,-51.02 -28.18,0 -51.03,22.84 -51.03,51.02 0,28.18 22.85,51.027 51.03,51.027 28.17,0 51.02,-22.847 51.02,-51.027"
             style="fill:#f1f0f0;fill-opacity:1;fill-rule:nonzero;stroke:none"
             id="path46" />
          <path
             d="m 358.582,283.461 c 0,-41.492 -33.633,-75.121 -75.117,-75.121 -41.488,0 -75.117,33.629 -75.117,75.121 0,41.488 33.629,75.117 75.117,75.117 41.484,0 75.117,-33.629 75.117,-75.117"
             style="fill:#f1f0f0;fill-opacity:1;fill-rule:nonzero;stroke:none"
             id="path48" />
          <path
             d="m 2133.07,283.461 c 0,50.879 -41.24,92.129 -92.12,92.129 -50.88,0 -92.13,-41.25 -92.13,-92.129 0,-50.879 41.25,-92.121 92.13,-92.121 50.88,0 92.12,41.242 92.12,92.121"
             style="fill:#ffffff;fill-opacity:1;fill-rule:nonzero;stroke:none"
             id="path50" />
          <path
             d="m 2116.06,283.461 c 0,-41.492 -33.63,-75.121 -75.11,-75.121 -41.49,0 -75.12,33.629 -75.12,75.121 0,41.488 33.63,75.117 75.12,75.117 41.48,0 75.11,-33.629 75.11,-75.117"
             style="fill:#f1f0f0;fill-opacity:1;fill-rule:nonzero;stroke:none"
             id="path52" />
          <path
             d="m 341.574,283.461 c 0,32.09 -26.015,58.109 -58.109,58.109 -32.094,0 -58.11,-26.019 -58.11,-58.109 h 116.219"
             style="fill:#ffffff;fill-opacity:1;fill-rule:nonzero;stroke:none"
             id="path54" />
          <path
             d="m 1982.84,283.461 c 0,-32.09 26.01,-58.109 58.11,-58.109 32.09,0 58.11,26.019 58.11,58.109 h -116.22"
             style="fill:#ffffff;fill-opacity:1;fill-rule:nonzero;stroke:none"
             id="path56" />
          <path
             d="m 1162.21,249.449 c 18.78,0 34.01,15.231 34.01,34.012 0,18.789 -15.23,34.019 -34.01,34.019 v -68.031"
             style="fill:#ffffff;fill-opacity:1;fill-rule:nonzero;stroke:none"
             id="path58" />
        </g>
      </g>
    </g>
  </g>
</svg>
